Coordinates
version=1
nRows=19
nColumns=24
inDegrees=yes

Units are S.I. units (second, meters, Newtons, ...)
Angles are in degrees.

endheader
time	pelvis_tilt	pelvis_list	pelvis_rotation	pelvis_tx	pelvis_ty	pelvis_tz	hip_flexion_r	hip_adduction_r	hip_rotation_r	knee_angle_r	ankle_angle_r	subtalar_angle_r	mtp_angle_r	hip_flexion_l	hip_adduction_l	hip_rotation_l	knee_angle_l	ankle_angle_l	subtalar_angle_l	mtp_angle_l	lumbar_extension	lumbar_bending	lumbar_rotation
      3.38500000	      8.47836008	     10.64812532	     -6.14297432	     -0.18686694	      0.99621132	     -0.04411075	     18.92794223	    -13.50670047	     -6.39467139	    -30.69399181	      4.40745895	     -5.03902124	     22.75746366	     -6.35986440	     15.94355745	    -10.42848537	    -12.11141206	     11.00714817	      2.47899645	      7.49961451	    -21.39760480	    -13.74589595	      3.22934474
      3.39000000	      8.42858793	     10.76167182	     -5.98085562	     -0.18242502	      0.99564557	     -0.04407855	     18.80408064	    -13.58807986	     -6.93147463	    -28.90390369	      3.86107929	     -4.49830208	     22.53388907	     -6.60127610	     16.05174823	    -10.16793532	    -12.14680283	     11.27013823	      2.53961757	      7.39021421	    -21.38138161	    -13.82578062	      2.96864203
      3.39500000	      8.46941060	     10.83757011	     -5.84664902	     -0.17784148	      0.99522307	     -0.04400200	     18.52682656	    -13.63480816	     -7.53277607	    -27.04901511	      3.30892235	     -3.88459938	     22.24751412	     -6.98422752	     16.13492314	     -9.94879741	    -12.11387870	     11.47838029	      2.55951350	      7.20498410	    -21.44860940	    -13.87518972	      2.75988020
      3.40000000	      8.52351864	     10.90808331	     -5.73916939	     -0.17327444	      0.99476365	     -0.04383945	     18.22991681	    -13.65149835	     -8.09429387	    -25.18526834	      2.74167348	     -3.21008819	     21.83626405	     -7.37119195	     16.21010595	     -9.73273489	    -12.09865104	     11.75031556	      2.60175602	      6.90448026	    -21.52899935	    -13.93341821	      2.62384040
      3.40500000	      8.50127694	     11.01569839	     -5.59463372	     -0.16868533	      0.99416988	     -0.04368774	     18.00812114	    -13.69893707	     -8.68914595	    -23.33350689	      2.17189656	     -2.45420982	     21.54261279	     -7.66878896	     16.30690428	     -9.49568886	    -12.10312982	     11.99263914	      2.66171793	      6.69336833	    -21.53198646	    -14.01760469	      2.39827418
      3.41000000	      8.44710445	     11.15221306	     -5.45223397	     -0.16410743	      0.99347252	     -0.04349396	     17.83285656	    -13.76367063	     -9.30012080	    -21.50966076	      1.58492702	     -1.63679504	     21.35243278	     -7.91620677	     16.42392195	     -9.29839628	    -12.13422717	     12.26978366	      2.74900438	      6.58585897	    -21.50250812	    -14.13499754	      2.14937560
      3.41500000	      8.42353380	     11.26576599	     -5.31380283	     -0.15945483	      0.99280952	     -0.04325880	     17.59329530	    -13.79368027	     -9.92234378	    -19.67298442	      1.00706457	     -0.74317323	     21.15343829	     -8.21565578	     16.51825290	     -9.08099715	    -12.14361844	     12.53313789	      2.81457987	      6.45627516	    -21.50171110	    -14.23284540	      1.94110650
      3.42000000	      8.38288078	     11.39048962	     -5.18664920	     -0.15478821	      0.99209371	     -0.04296802	     17.37586780	    -13.81677745	    -10.52436287	    -17.86198125	      0.43090884	      0.20035472	     20.94736552	     -8.49287814	     16.61875675	     -8.88623263	    -12.15776863	     12.79361572	      2.89257719	      6.31444171	    -21.48055925	    -14.34770211	      1.73588745
      3.42500000	      8.32584867	     11.52333059	     -5.05902801	     -0.15009157	      0.99132289	     -0.04264403	     17.17794603	    -13.83501843	    -11.11721419	    -16.09109427	     -0.12192492	      1.20905184	     20.74376594	     -8.75109632	     16.72225428	     -8.69343541	    -12.18015335	     13.06438034	      2.98006777	      6.17234644	    -21.43947016	    -14.47280170	      1.53274668
      3.43000000	      8.28641070	     11.64703625	     -4.93409220	     -0.14535306	      0.99056707	     -0.04227276	     16.95062801	    -13.83190290	    -11.69813071	    -14.35184477	     -0.64339699	      2.25230900	     20.48005801	     -9.04007108	     16.81416317	     -8.49343653	    -12.18646076	     13.29627978	      3.05601765	      5.96404086	    -21.41826257	    -14.59227779	      1.33369970
      3.43500000	      8.19537189	     11.80452068	     -4.81630262	     -0.14064915	      0.98967030	     -0.04187369	     16.82316088	    -13.85160569	    -12.25339912	    -12.71981539	     -1.12791904	      3.35303165	     20.27355410	     -9.24922829	     16.93263478	     -8.32937224	    -12.23254422	     13.60860836	      3.17434743	      5.83410766	    -21.34120656	    -14.74977209	      1.13613410
      3.44000000	      8.10583539	     11.95053157	     -4.69635030	     -0.13588466	      0.98878426	     -0.04144969	     16.68938809	    -13.85047429	    -12.79776433	    -11.14785315	     -1.57585949	      4.46271482	     20.03109495	     -9.47882510	     17.03879107	     -8.14569702	    -12.25064084	     13.86870706	      3.26109422	      5.67279461	    -21.26411006	    -14.89534210	      0.93573008
      3.44500000	      7.98207211	     12.10159824	     -4.57613209	     -0.13115786	      0.98782403	     -0.04099798	     16.62229235	    -13.84501818	    -13.28432167	     -9.68568216	     -1.96805231	      5.57456893	     19.83078927	     -9.64520441	     17.14041643	     -7.97668053	    -12.31935485	     14.16301228	      3.38119674	      5.56820499	    -21.15270561	    -15.04841171	      0.77348825
      3.45000000	      7.90464618	     12.25250987	     -4.45843613	     -0.12638112	      0.98692518	     -0.04053382	     16.51444364	    -13.84432259	    -13.78718589	     -8.31888687	     -2.29743311	      6.69396916	     19.57781180	     -9.88387724	     17.24605830	     -7.78910464	    -12.35091888	     14.42079014	      3.46507541	      5.42797920	    -21.09378998	    -15.20136380	      0.57334148
      3.45500000	      7.79500666	     12.39532339	     -4.34566301	     -0.12161305	      0.98596660	     -0.04005192	     16.47241956	    -13.82859389	    -14.24299436	     -7.07894843	     -2.56733653	      7.77123862	     19.33999363	    -10.07769735	     17.33819523	     -7.61548002	    -12.40079105	     14.68593383	      3.57412409	      5.31535620	    -20.99865439	    -15.34710257	      0.41580014
      3.46000000	      7.65041107	     12.51526079	     -4.23791980	     -0.11675541	      0.98498488	     -0.03956493	     16.48946773	    -13.78444987	    -14.69464421	     -5.96876149	     -2.80763734	      8.76248073	     19.15214481	    -10.25767153	     17.40660209	     -7.46231147	    -12.41256610	     14.92651964	      3.68857175	      5.24308265	    -20.85204653	    -15.46682124	      0.28623634
      3.46500000	      7.56453561	     12.65198547	     -4.12232246	     -0.11195215	      0.98407831	     -0.03910510	     16.47395979	    -13.77849141	    -15.14343966	     -5.00143405	     -2.93782030	      9.78211172	     18.94288548	    -10.48633007	     17.49314596	     -7.26083368	    -12.45329545	     15.16153558	      3.77314478	      5.15563071	    -20.78565246	    -15.59856135	      0.11222437
      3.47000000	      7.52513466	     12.77018602	     -3.99752707	     -0.10717442	      0.98324682	     -0.03867042	     16.43047912	    -13.77003664	    -15.58307618	     -4.17988772	     -2.96699681	     10.72728816	     18.63477397	    -10.75660380	     17.56008510	     -7.02001545	    -12.51886555	     15.41844391	      3.82787358	      5.02795068	    -20.78272636	    -15.70505321	     -0.05483845
      3.47500000	      7.42850362	     12.86144957	     -3.89647112	     -0.10230001	      0.98236439	     -0.03820469	     16.48379290	    -13.72456856	    -16.02271842	     -3.50893140	     -3.00818358	     11.53301059	     18.42103131	    -10.99081190	     17.59899942	     -6.85397044	    -12.53219471	     15.63998338	      3.93484326	      4.95742542	    -20.69320382	    -15.78743301	     -0.17301884
